<?xml version="1.0" encoding="utf-8"?>
<!-- Generator: Adobe Illustrator 25.2.1, SVG Export Plug-In . SVG Version: 6.00 Build 0)  -->
<svg version="1.1" id="Layer_1" xmlns="http://www.w3.org/2000/svg" xmlns:xlink="http://www.w3.org/1999/xlink" x="0px" y="0px"
	 viewBox="0 0 2138.6 520.6" style="enable-background:new 0 0 2138.6 520.6;" xml:space="preserve">
<style type="text/css">
	.st0{fill:#6E00C6;}
	.st1{fill:url(#SVGID_1_);}
	.st2{fill:#28E6A5;}
</style>
<path class="st0" d="M398.3,257.6l-167.1,75.2c-12.2,7.9-28.9,11.1-48.5,6l-45.9-13v109.9l0.3,0.1l42.5,11.4
	c7.9,2,15.9,2.8,24.1,3.1c8.2,0,16.2-1.4,23.8-4.5l170.8-78c30.3-13.9,51.6-32.1,51.6-68.6c0-25-7.1-45.1-21.3-60.1
	C419.6,246.5,409.1,252.8,398.3,257.6z"/>
<linearGradient id="SVGID_1_" gradientUnits="userSpaceOnUse" x1="171.8468" y1="12227.6055" x2="312.2495" y2="11919.4551" gradientTransform="matrix(1 0 0 -1 0 12239.1455)">
	<stop  offset="4.000000e-02" style="stop-color:#4B009B"/>
	<stop  offset="0.77" style="stop-color:#AA23FF"/>
</linearGradient>
<path class="st1" d="M25.3,146.7l196-89.3c0,0,116.3,31.5,156,42.8c49.1,13.9,73.2,42.8,73.2,88.8c0,36.6-21.6,54.7-51.6,68.6
	l-173.9,78L25.3,146.7z"/>
<path class="st2" d="M25.3,405.4V146.7c0,0,119.1,32.1,158.8,43.4c49.1,13.9,73.2,44.8,73.2,90.8c0,36.6-28.4,70.1-74.3,57.9
	L137.1,326v109.8L25.3,405.4z"/>
<path d="M1804.1,158.3h-58.7l-97.3,91.6v-91.6h-46.2v209h46.2v-59.6l36-34.3l82.3,94.2h58.7l-109.2-125.1L1804.1,158.3z"/>
<path d="M1393.3,301.8V158.3h-46.2v209h46.2l116-143.5v143.5h46.2v-209h-46.2L1393.3,301.8z"/>
<path d="M2009.1,158.3l-116.9,143.5V158.3h-45.4v209h45.4l116.9-143.5v143.5h46.2v-209L2009.1,158.3L2009.1,158.3z"/>
<path d="M770.8,158.3H638v209h46.2v-68.1h86.5c42,0,69.8-31.8,69.8-70.6S813.6,158.3,770.8,158.3z M765.6,261H684v-64.1h81.7
	c20.1,0,31.8,14.2,31.8,31.8S785.8,261,765.6,261z"/>
<path d="M968.2,266.1L899,158.6h-53l96.7,151.7l-34,57.3h50.2l122.8-209h-50.2L968.2,266.1z"/>
<path d="M1284.1,257.6c12.5-10.2,19.3-26.1,19.3-43.7c0-29.5-21.8-55.3-53.9-55.3h-144.1v209.9h149.2c36,0,57.9-27.8,57.9-58.7
	C1312.8,288.5,1302,268.6,1284.1,257.6z M1151.4,196.9h86.8c11.9-0.6,22.1,8.5,22.7,20.4c0,0.9,0,1.4,0,2.3
	c0,12.5-7.7,22.7-22.7,22.7h-86.8V196.9z M1243.3,328.8h-91.6v-51.9h91.6c16.7,0,26.1,11.6,26.1,26.1c0.6,13.9-10.2,25.5-24.1,26.1
	C1244.4,328.8,1243.9,328.8,1243.3,328.8L1243.3,328.8z"/>
</svg>
